<?xml version="1.0" encoding="utf-8"?>
<!-- Generator: Adobe Illustrator 27.5.0, SVG Export Plug-In . SVG Version: 6.00 Build 0)  -->
<svg version="1.1" id="Layer_1" xmlns="http://www.w3.org/2000/svg" xmlns:xlink="http://www.w3.org/1999/xlink" x="0px" y="0px"
	 viewBox="0 0 800 800" style="enable-background:new 0 0 800 800;" xml:space="preserve">
<style type="text/css">
	.st0{fill:#E22151;}
</style>
<g>
	<path class="st0" d="M199.4,659.8c133.7,0,267.5,0,401.3,0c2.3,0,4.6-0.2,6.9-0.4c29.4-3.4,52.2-29.1,52.2-58.7
		c0-133.7,0-267.5,0-401.2c0-1.7,0.1-3.4-0.2-5.2c-3.2-30.9-28.8-54.1-60-54.1c-133,0-266,0-399,0.1c-3.6,0-7.3,0.2-10.8,0.9
		c-29.5,5.6-49.5,30-49.5,60v198.9c0,66.1,0,132.3,0,198.5c0,3.4,0.3,6.8,0.7,10.1C144.8,637.4,170.4,659.8,199.4,659.8z M500,220.2
		c0.1-11.5,8.9-19.9,20.4-20c19.7,0,39.4,0,59.1,0c11.7,0.1,20.4,8.7,20.4,20.5c0.1,19.6,0.1,39.3,0,59c0,11.9-8.7,20.5-20.5,20.5
		h-29.5c-9.8,0-19.7,0-29.6,0c-11.4,0-20.2-8.5-20.3-19.9C499.9,260.2,499.9,240.2,500,220.2z M400,300.1c55.2,0,99.9,44.6,100,99.8
		c0,55.2-44.6,99.9-99.8,100c-55.3,0-100.1-44.8-100-100.1C300.2,344.9,344.9,300.1,400,300.1z M200.2,362.6v-2.3h45.1
		c-10.1,40.7-5.5,79.6,14.5,116.4c14.6,26.9,35.4,47.8,62,62.9c52.6,29.7,118.1,26.8,168.2-7.4c27.8-19,47.7-44.3,59.7-75.8
		c11.9-31.4,13.3-63.5,5.1-96.2h45.2c0,0.9,0,1.7,0,2.6v215.3c0,13.5-8.2,21.8-21.7,21.8h-333c-8,0-16,0.1-24,0
		c-12.5,0-21-8.5-21-21C200.2,506.8,200.2,434.6,200.2,362.6z"/>
	<path class="st0" d="M0,0v800h800V0H0z M750.5,750.5h-701v-701h701V750.5z"/>
</g>
</svg>
