<?xml version="1.0" encoding="utf-8"?>
<!-- Generator: Adobe Illustrator 27.5.0, SVG Export Plug-In . SVG Version: 6.00 Build 0)  -->
<svg version="1.1" id="Layer_1" xmlns="http://www.w3.org/2000/svg" xmlns:xlink="http://www.w3.org/1999/xlink" x="0px" y="0px"
	 viewBox="0 0 800 800" style="enable-background:new 0 0 800 800;" xml:space="preserve">
<style type="text/css">
	.st0{fill:#E22151;}
</style>
<g>
	<path class="st0" d="M140.2,563.2c47.2,30.3,103.2,47.9,163.4,47.9c196.1,0,303.3-162.4,303.3-303.3c0-4.6-0.1-9.2-0.3-13.8
		c20.8-15,38.9-33.8,53.2-55.2c-19.1,8.5-39.7,14.2-61.2,16.8c22-13.2,38.9-34.1,46.9-59c-20.6,12.2-43.4,21.1-67.7,25.9
		c-19.4-20.7-47.1-33.7-77.8-33.7c-58.9,0-106.6,47.7-106.6,106.6c0,8.4,0.9,16.5,2.8,24.3c-88.6-4.5-167.1-46.9-219.7-111.4
		c-9.2,15.7-14.4,34.1-14.4,53.6c0,37,18.8,69.6,47.4,88.7c-17.5-0.6-33.9-5.4-48.3-13.3c0,0.4,0,0.9,0,1.3
		c0,51.6,36.7,94.7,85.5,104.5c-8.9,2.4-18.4,3.7-28.1,3.7c-6.9,0-13.5-0.7-20.1-1.9c13.6,42.4,52.9,73.2,99.6,74
		c-36.5,28.6-82.4,45.6-132.4,45.6C157,564.7,148.5,564.2,140.2,563.2z"/>
	<path class="st0" d="M0,0v800h800V0H0z M750.5,750.5h-701v-701h701V750.5z"/>
</g>
</svg>
